<svg xmlns="http://www.w3.org/2000/svg" width="16" height="16" fill="none" viewBox="0 0 16 16">
    <path fill="#fff" fill-rule="evenodd" d="M1.646 4.646c.046-.047.102-.084.162-.109.061-.025.126-.038.192-.038s.13.013.192.038c.06.025.115.062.162.109L8 10.293l5.646-5.647c.046-.047.102-.083.162-.109.061-.025.126-.038.192-.038s.13.013.191.038c.061.026.116.062.163.109.046.046.083.102.108.162.026.061.039.126.039.192s-.013.13-.039.191c-.025.061-.062.116-.108.163l-6 6c-.047.046-.102.083-.162.109-.061.025-.126.038-.192.038s-.131-.013-.192-.038c-.06-.026-.116-.063-.162-.11l-6-6c-.047-.046-.084-.1-.109-.161C1.512 5.13 1.5 5.066 1.5 5s.013-.131.038-.192c.025-.06.062-.116.109-.162z" clip-rule="evenodd"/>
</svg>
